<?xml version="1.0" encoding="UTF-8"?>
<svg id="Layer_2" data-name="Layer 2" xmlns="http://www.w3.org/2000/svg" viewBox="0 0 342.49 407.78">
  <defs>
    <style>
      .cls-1 {
        fill: #7d41ce;
      }

      .cls-2 {
        fill: #e9fffe;
      }

      .cls-3 {
        fill: #9cefe8;
      }

      .cls-4 {
        fill: #152f55;
      }

      .cls-5 {
        fill: #fffbe8;
      }
    </style>
  </defs>
  <g id="Layer_1-2" data-name="Layer 1">
    <g>
      <g>
        <g>
          <path class="cls-5" d="M303.89,66.78l-98.29-47.71c-10.55-5.13-22.8-5.42-33.58-.8-10.79,4.6-19.05,13.71-22.68,24.98-6.11,18.97,3.35,40.1,21.99,49.16.45.22.65.57.74.82.09.26.15.66-.07,1.11l-10.98,22.62h-.12c-2.67-.16-5.34-.24-7.99-.24-52.72,0-100.83,29.91-124.09,77.84-16.66,34.31-18.34,74.4-4.61,109.99,13.92,36.11,41.45,64,77.53,78.53,15.99,6.44,32.94,9.7,50.37,9.7,51.04,0,99.25-28.62,122.82-72.91,26.97-50.69,19.6-113.56-18.33-156.46l-.09-.09.06-.11,10.93-22.51c.21-.44.57-.64.82-.73.39-.13.77-.11,1.11.06,9.75,4.74,20.73,5.39,30.89,1.84,11.17-3.83,20.07-12.36,24.44-23.41,7.74-19.54-1.43-42.24-20.87-51.68ZM200.89,101.02c.7-1.44,1.92-2.52,3.43-3.04,1.51-.53,3.14-.43,4.58.27l22.11,10.73c1.44.7,2.52,1.92,3.04,3.43.53,1.52.43,3.15-.27,4.59-1,2.05-3.11,3.37-5.39,3.37-.92,0-1.8-.2-2.62-.6l-22.11-10.73c-1.44-.7-2.52-1.92-3.05-3.44-.52-1.51-.42-3.14.28-4.58ZM217.45,179.29c14.37,0,26.03,11.66,26.03,26.04s-11.66,26.03-26.03,26.03-26.04-11.65-26.04-26.03,11.66-26.04,26.04-26.04ZM164.42,164.39c7.36,0,13.33,5.97,13.33,13.33s-5.97,13.33-13.33,13.33-13.33-5.97-13.33-13.33,5.97-13.33,13.33-13.33ZM252.01,266.25v.05c-.1.83-.2,1.7-.34,2.63-3.41,25.65-16.27,48.99-36.21,65.7-18.73,15.7-42.18,24.18-66.59,24.18-1.92,0-3.84-.06-5.77-.16-25.09-1.34-48.9-11.93-67.03-29.83-18.14-17.9-29.05-41.57-30.71-66.64-1.42-21.48,3.65-42.45,14.66-60.63,1.23-2.04,2.74-3.73,4.48-5.03.02-.03.06-.06.1-.08,11.11-8.74,26.58-12.79,42.45-11.12,15.56,1.66,31.91,8.46,50,20.78,7.37,5.03,14.55,10.58,21.49,15.95,7.22,5.6,14.7,11.39,22.4,16.59,15.6,10.55,31.24,17.46,45.22,19.98,3.67.69,6.24,4.03,5.85,7.63Z"/>
          <path class="cls-1" d="M169.28,243.79c0,8.05-6.55,14.6-14.59,14.6s-14.63-6.55-14.63-14.6,6.56-14.63,14.63-14.63,14.59,6.57,14.59,14.63Z"/>
        </g>
        <path class="cls-4" d="M338.71,123.98c-5.99,15.13-18.21,26.83-33.53,32.08-5.8,2.03-11.92,3.07-18.1,3.07-3.82,0-7.59-.39-11.29-1.17l-1.57,3.24c36.43,47.17,42.26,112.51,13.95,165.72-26.14,49.12-79.55,80.86-136.06,80.86-19.37,0-38.2-3.63-55.97-10.79-39.98-16.09-70.49-47.01-85.93-87.05-15.22-39.45-13.35-83.89,5.12-121.93,12.62-26.01,32.17-47.81,56.53-63.06,23.96-14.99,51.56-23.01,79.88-23.23l1.55-3.19c-17.48-14.4-25.23-38.14-18.23-59.88,4.97-15.42,16.29-27.88,31.08-34.18,6.91-2.96,14.25-4.47,21.8-4.47,8.34,0,16.71,1.93,24.22,5.58l98.28,47.71c26.46,12.85,38.88,43.9,28.27,70.69Z"/>
      </g>
      <path class="cls-3" d="M233.78,117c-1,2.05-3.11,3.37-5.39,3.37-.92,0-1.8-.2-2.62-.6l-22.11-10.73c-1.44-.7-2.52-1.92-3.05-3.44-.52-1.51-.42-3.14.28-4.58s1.92-2.52,3.43-3.04c1.51-.53,3.14-.43,4.58.27l22.11,10.73c1.44.7,2.52,1.92,3.04,3.43.53,1.52.43,3.15-.27,4.59Z"/>
      <path class="cls-1" d="M177.75,177.72c0,7.36-5.97,13.33-13.33,13.33s-13.33-5.97-13.33-13.33,5.97-13.33,13.33-13.33,13.33,5.97,13.33,13.33Z"/>
      <path class="cls-1" d="M243.48,205.33c0,14.38-11.66,26.03-26.03,26.03s-26.04-11.65-26.04-26.03,11.66-26.04,26.04-26.04,26.03,11.66,26.03,26.04Z"/>
      <path class="cls-1" d="M246.16,258.62c-13.98-2.52-29.62-9.43-45.22-19.98-7.7-5.2-15.18-10.99-22.4-16.59-6.94-5.37-14.12-10.92-21.49-15.95-18.09-12.32-34.44-19.12-50-20.78-15.87-1.67-31.34,2.38-42.45,11.12-.04.02-.08.05-.1.08-1.74,1.3-3.25,2.99-4.48,5.03-11.01,18.18-16.08,39.15-14.66,60.63,1.66,25.07,12.57,48.74,30.71,66.64,18.13,17.9,41.94,28.49,67.03,29.83,1.93.1,3.85.16,5.77.16,24.41,0,47.86-8.48,66.59-24.18,19.94-16.71,32.8-40.05,36.21-65.7.14-.93.24-1.8.34-2.63v-.05c.39-3.6-2.18-6.94-5.85-7.63ZM154.69,258.39c-8.07,0-14.63-6.55-14.63-14.6s6.56-14.63,14.63-14.63,14.59,6.57,14.59,14.63-6.55,14.6-14.59,14.6Z"/>
    </g>
    <g>
      <path class="cls-2" d="M303.89,66.78l-98.29-47.71c-10.55-5.13-22.8-5.42-33.58-.8-10.79,4.6-19.05,13.71-22.68,24.98-6.11,18.97,3.35,40.1,21.99,49.16.45.22.65.57.74.82.09.26.15.66-.07,1.11l-10.98,22.62h-.12c-2.67-.16-5.34-.24-7.99-.24-52.72,0-100.83,29.91-124.09,77.84-16.66,34.31-18.34,74.4-4.61,109.99,13.92,36.11,41.45,64,77.53,78.53,15.99,6.44,32.94,9.7,50.37,9.7,51.04,0,99.25-28.62,122.82-72.91,26.97-50.69,19.6-113.56-18.33-156.46l-.09-.09.06-.11,10.93-22.51c.21-.44.57-.64.82-.73.39-.13.77-.11,1.11.06,9.75,4.74,20.73,5.39,30.89,1.84,11.17-3.83,20.07-12.36,24.44-23.41,7.74-19.54-1.43-42.24-20.87-51.68ZM200.89,101.02c.7-1.44,1.92-2.52,3.43-3.04,1.51-.53,3.14-.43,4.58.27l22.11,10.73c1.44.7,2.52,1.92,3.04,3.43.53,1.52.43,3.15-.27,4.59-1,2.05-3.11,3.37-5.39,3.37-.92,0-1.8-.2-2.62-.6l-22.11-10.73c-1.44-.7-2.52-1.92-3.05-3.44-.52-1.51-.42-3.14.28-4.58ZM217.45,179.29c14.37,0,26.03,11.66,26.03,26.04s-11.66,26.03-26.03,26.03-26.04-11.65-26.04-26.03,11.66-26.04,26.04-26.04ZM164.42,164.39c7.36,0,13.33,5.97,13.33,13.33s-5.97,13.33-13.33,13.33-13.33-5.97-13.33-13.33,5.97-13.33,13.33-13.33ZM252.01,266.25v.05c-.1.83-.2,1.7-.34,2.63-3.41,25.65-16.27,48.99-36.21,65.7-18.73,15.7-42.18,24.18-66.59,24.18-1.92,0-3.84-.06-5.77-.16-25.09-1.34-48.9-11.93-67.03-29.83-18.14-17.9-29.05-41.57-30.71-66.64-1.42-21.48,3.65-42.45,14.66-60.63,1.23-2.04,2.74-3.73,4.48-5.03.02-.03.06-.06.1-.08,11.11-8.74,26.58-12.79,42.45-11.12,15.56,1.66,31.91,8.46,50,20.78,7.37,5.03,14.55,10.58,21.49,15.95,7.22,5.6,14.7,11.39,22.4,16.59,15.6,10.55,31.24,17.46,45.22,19.98,3.67.69,6.24,4.03,5.85,7.63Z"/>
      <path class="cls-2" d="M169.28,243.79c0,8.05-6.55,14.6-14.59,14.6s-14.63-6.55-14.63-14.6,6.56-14.63,14.63-14.63,14.59,6.57,14.59,14.63Z"/>
    </g>
  </g>
</svg>