<?xml version="1.0" encoding="UTF-8"?>
<svg id="Layer_2" data-name="Layer 2" xmlns="http://www.w3.org/2000/svg" viewBox="0 0 493.41 187.02">
  <defs>
    <style>
      .cls-1 {
        fill: #152f55;
      }
    </style>
  </defs>
  <g id="Layer_1-2" data-name="Layer 1">
    <g id="Text">
      <path class="cls-1" d="M440.6,132.72l-16.37-7.95c-1.76-.85-3.8-.9-5.59-.13-1.8.77-3.17,2.28-3.78,4.16-1.02,3.16.56,6.68,3.66,8.19.07.04.11.09.12.14.01.04.03.11-.01.18l-1.83,3.77h-.02c-.44-.03-.89-.04-1.33-.04-8.78,0-16.8,4.98-20.67,12.97-2.77,5.72-3.05,12.39-.77,18.32,2.32,6.01,6.9,10.66,12.91,13.08,2.66,1.07,5.49,1.62,8.39,1.62,8.5,0,16.53-4.77,20.46-12.15,4.49-8.44,3.26-18.92-3.05-26.06h-.01s0-.03,0-.03l1.82-3.75c.04-.07.09-.11.14-.12.06-.02.13-.02.18.01,1.62.79,3.45.9,5.15.31,1.86-.64,3.34-2.06,4.07-3.9,1.29-3.25-.24-7.04-3.48-8.61ZM423.44,138.43c.12-.24.32-.42.57-.51.25-.09.52-.07.76.05l3.68,1.79c.24.12.42.32.51.57s.07.52-.05.76c-.17.34-.52.56-.9.56-.15,0-.3-.03-.44-.1l-3.68-1.79c-.24-.12-.42-.32-.51-.57-.09-.25-.07-.52.05-.76ZM426.2,151.46c2.4,0,4.34,1.94,4.34,4.34s-1.94,4.34-4.34,4.34-4.34-1.94-4.34-4.34,1.94-4.34,4.34-4.34ZM417.36,148.98c1.23,0,2.22.99,2.22,2.22s-.99,2.22-2.22,2.22-2.22-.99-2.22-2.22.99-2.22,2.22-2.22ZM431.95,165.95h0c-.02.15-.03.29-.06.45-.57,4.27-2.71,8.16-6.03,10.95-3.12,2.61-7.03,4.03-11.09,4.03-.32,0-.64,0-.96-.03-4.18-.22-8.15-1.99-11.17-4.97-3.02-2.98-4.84-6.92-5.12-11.1-.24-3.58.61-7.07,2.44-10.1.2-.34.46-.62.75-.84,0,0,0-.01.02-.01,1.85-1.46,4.43-2.13,7.07-1.85,2.59.28,5.32,1.41,8.33,3.46,1.23.84,2.42,1.76,3.58,2.66,1.2.93,2.45,1.9,3.73,2.76,2.6,1.76,5.2,2.91,7.53,3.33.61.11,1.04.67.97,1.27Z"/>
      <g>
        <path class="cls-1" d="M201.56,136.68c-2.25-3.38-3.74-8.76-6.37-19.39l-9.39-37.65c-.31-1.23-.45-2.3-.45-3.35,0-.15,0-.3.02-.44.04-.38-.08-.75-.32-1.03-.23-.25-.54-.4-.89-.4h-26.77c-.34,0-.64.14-.86.39-.24.27-.35.64-.31,1.01.02.15.03.31.03.47,0,1.18-.28,2.28-.54,3.35l-10.2,37.65c-2.72,10.01-4.37,15.85-6.72,19.37-.26.39-.28.86-.05,1.27.23.41.65.66,1.12.64,1.67-.04,4.37-.09,7.79-.09s6.24.05,8.04.09c.46.01.88-.22,1.11-.63.23-.39.22-.85-.01-1.23-.63-1.03-.95-2.28-.95-3.71,0-2.32.78-5.49,1.76-9.51.16-.67.33-1.35.5-2.05l.49-2.01c.14-.58.66-.99,1.26-.99h15.79c.6,0,1.12.41,1.26.99l.67,2.75c1.11,4.61,1.99,8.25,1.99,10.83,0,1.44-.32,2.69-.96,3.73-.23.38-.24.84-.02,1.23.23.4.64.64,1.1.63,2.4-.05,6.12-.11,10.22-.11,4.6,0,8.31.06,10.61.11.47.01.88-.23,1.11-.64.22-.41.2-.88-.05-1.26ZM173.59,107.62c-.25.31-.62.49-1.02.49h-9.71c-.4,0-.77-.18-1.02-.49s-.34-.71-.25-1.1l4.81-20.6c.17-.74.79-1.01,1.26-1.01h0c.48,0,1.09.26,1.26,1.01l.03.12,4.87,20.47c.09.39,0,.79-.24,1.11Z"/>
        <path class="cls-1" d="M345.43,87.18c-.04-.08-.08-.16-.13-.24-.02-.03-.03-.06-.05-.09-.03-.06-.06-.11-.09-.17-.06-.11-.13-.23-.19-.34-1.97-3.45-4.62-6.22-7.95-8.29-.02-.01-.04-.03-.06-.04-.06-.03-.11-.07-.17-.1-.07-.04-.14-.09-.22-.13,0,0-.01,0-.02,0-.07-.04-.15-.09-.22-.13-4.72-2.71-10.71-4.07-17.97-4.07-19.54,0-30.75,12.33-30.75,33.83,0,7.71,1.34,14.05,4,19.02.02.03.03.06.05.1.03.06.06.11.09.17,1.99,3.6,4.71,6.49,8.14,8.63.02.01.04.03.06.04.06.04.11.07.17.1.07.04.14.09.21.13,0,0,.01,0,.02.01,4.75,2.8,10.82,4.2,18.19,4.2,19.54,0,30.75-12.33,30.75-33.83,0-7.59-1.3-13.85-3.88-18.79ZM338.38,108.51c-.43,4.95-2.69,9.54-6.36,12.93-3.7,3.4-8.5,5.28-13.53,5.28-5.33,0-10.34-2.08-14.11-5.85-3.77-3.77-5.85-8.78-5.85-14.11,0-4.95,1.82-9.69,5.13-13.36,3.29-3.64,7.77-5.94,12.63-6.47h.05s-.02.04-.02.04c-.81,1.98-1.22,4.08-1.22,6.23,0,9.17,7.46,16.63,16.64,16.63,2.29,0,4.5-.45,6.58-1.35l.05-.02v.05Z"/>
        <path class="cls-1" d="M413.76,136.35c-1.83-1.32-2.92-3.12-4.42-6.17l-5.24-10.65c-2.52-5.1-4.63-7.65-7.51-9.09-.49-.25-.78-.76-.72-1.3.05-.53.41-.95.93-1.08,8.2-2.17,12.36-7.89,12.36-16.98,0-7.3-2.93-12.02-8.97-14.43-5.41-2.16-12.84-2.33-20.62-2.33-1.42,0-4.08.04-6.89.09-2.81.05-5.72.09-7.28.09-.96,0-1.95,0-2.94-.02-1.71-.02-3.38-.06-4.95-.11-.27-.01-.51.12-.65.35-.14.22-.15.49-.03.72.17.32.39.74.61,1.17.16.31.28.58.39.82.13.29.24.59.33.89.11.33.2.67.28,1.05.09.4.16.83.23,1.32.07.51.13,1.06.19,1.69.06.65.1,1.34.15,2.16.04.82.08,1.71.11,2.74.03,1.02.06,2.14.08,3.42.02,1.27.04,2.61.05,4.21.01,1.54.02,3.16.03,5.1,0,1.81,0,3.74,0,6.06,0,.56,0,1.12,0,1.68,0,3.16-.01,6.92-.06,10.78-.03,2.2-.07,4.81-.16,7.44-.05,1.45-.13,3.16-.28,4.84-.08.89-.2,1.95-.42,2.99-.21,1.07-.64,2.19-1.36,3.53-.15.29-.14.63.03.91.17.27.47.43.79.42,3.33-.09,6.76-.13,10.19-.13.98,0,1.95,0,2.89,0,2.64.01,5.03.05,7.31.12.33.01.63-.15.8-.43.17-.28.18-.61.02-.9-.23-.42-.5-.93-.75-1.45-.33-.7-.58-1.41-.74-2.14-.3-1.33-.41-2.7-.49-3.88-.16-2.25-.21-4.47-.25-6.56-.03-1.42-.04-2.93-.06-4.76,0-.11,0-.4-.02-.81-.02-.83-.05-2.09-.06-3.15-.02-1.95.04-1.96.08-1.97.02,0,.56-.09,1.27-.09,2.79,0,3.68,1.7,6.62,7.32.23.43.46.89.72,1.36l4.24,8.04c4.52,8.57,8.13,10.1,16.05,10.1,3.23,0,5.84-.27,7.76-.81.45-.12.76-.47.84-.93.09-.49-.11-.97-.52-1.26ZM389.06,99.78c-.94,1.41-2.3,2.39-4.15,2.97-1.38.43-2.91.63-4.79.63-.81,0-1.53,0-2.13-.03-.69-.02-1.24-.58-1.24-1.28v-17.28c0-.68.53-1.24,1.2-1.28.57-.04,1.24-.05,1.99-.05,3.79,0,6.22.6,7.89,1.96.94.76,1.62,1.76,2.08,3.05.48,1.34.71,2.96.71,4.95,0,2.7-.51,4.78-1.56,6.36Z"/>
        <path class="cls-1" d="M281.77,134.94c.18-3.48.36-6.19.49-8.18h0c.06-.75-.32-1.42-.98-1.75-.7-.35-1.51-.25-2.12.27-2.43,2.1-5.89,2.92-12.35,2.92h-3.81c-1.05,0-1.91-.86-1.91-1.91v-26.47c0-17.83.45-20.41,2.4-23.71.03-.04.05-.08.07-.11s.04-.08.07-.11v-.02c.07-.13.1-.26.1-.41,0-.59-.48-1.06-1.06-1.06-1.67.05-4.81.1-10.29.1s-9.01-.06-10.95-.11h-.04c-.59,0-1.06.48-1.06,1.06,0,.16.03.29.08.4.03.08.06.15.11.21.93,1.78,1.43,2.88,1.73,6.67.29,3.64.39,9.75.39,23.34,0,12.85-.11,19.43-.37,23.44-.27,3.98-.68,5.41-1.46,6.93-.04.06-.07.12-.1.18v.02c-.07.17-.11.36-.11.56,0,.81.65,1.46,1.45,1.46,1.46-.02,2.92-.03,4.45-.03h33.33c.99,0,1.8-.78,1.85-1.76l.09-1.92Z"/>
        <path class="cls-1" d="M209.24,138.65c3.32-.08,6.78-.12,10.29-.12,3.01,0,6.3.04,10.06.12.45.01.86-.21,1.1-.59.24-.38.26-.85.05-1.26-.36-.7-.62-1.28-.81-1.82-.76-2.16-.86-4.54-.96-6.83,0-.21-.02-.41-.03-.62-.25-5.77-.24-11.65-.23-17.34,0-1.08,0-2.16,0-3.23,0-3.24,0-5.87.02-8.27,0-.76,0-1.53,0-2.3.01-4.51.03-9.17.41-13.73.2-2.38.7-4.28,1.72-6.53.18-.39.14-.84-.1-1.2-.25-.37-.66-.59-1.11-.57-3.03.08-6.28.12-10.22.12-3.69,0-6.98-.04-10.05-.12-.01,0-.02,0-.03,0-.44,0-.84.22-1.07.59-.24.38-.26.85-.05,1.25.36.69.61,1.26.8,1.8.77,2.16.87,4.53.96,6.83,0,.2.02.41.03.61.25,5.77.24,11.66.24,17.35,0,1.08,0,2.17,0,3.25,0,3.15,0,6.87-.03,10.64,0,1.07,0,2.15,0,3.19.03,5.98.05,11.63-2.18,17.03-.16.4-.12.84.12,1.19.24.35.64.56,1.07.54Z"/>
        <path class="cls-1" d="M88.4,76.25c.03,1.5.04,3.26.04,5.23s-.02,3.7-.07,5.33c-.02.6.25,1.17.73,1.54.46.36,1.05.47,1.6.31.94-.28,1.31-.63,1.75-1.03.24-.23.52-.48.92-.75l.08-.05c1.96-1.24,3.5-2.21,7.7-2.21h3.26c.71,0,1.28.58,1.28,1.28v20.15c0,5.72,0,12.83-.18,19.64-.05,1.95-.16,3.74-.33,5.48-.11,1.1-.27,2.39-.66,3.62-.28.87-.68,1.69-1.05,2.37-.17.32-.16.69.04,1,.2.31.53.5.9.49,3.16-.08,6.61-.12,10.55-.12,4.22,0,7.45.04,10.46.12.37,0,.71-.17.9-.48.19-.31.21-.69.03-1.02-.29-.55-.67-1.28-.95-2.04-.45-1.21-.63-2.51-.74-3.51-.17-1.56-.28-3.22-.34-5.07-.18-6.44-.18-12.98-.18-19.31v-21.31c0-.71.58-1.28,1.28-1.28h3.26c4.2,0,5.74.98,7.7,2.21l.07.05c.45.3.74.58,1,.82.4.39.75.72,1.57.98.59.19,1.22.08,1.71-.29.48-.36.75-.92.73-1.52-.05-1.64-.08-3.45-.08-5.38s.01-3.73.04-5.23c0-.5-.18-.97-.53-1.32-.35-.36-.82-.55-1.33-.55h-49.32c-.5,0-.97.2-1.33.55-.35.35-.53.82-.53,1.32Z"/>
      </g>
      <g>
        <path class="cls-1" d="M213.28,183.79c-1.4-2.11-2.33-5.46-3.98-12.09l-5.86-23.48c-.19-.77-.28-1.44-.28-2.09,0-.09,0-.19.01-.28.03-.23-.05-.46-.2-.63-.14-.16-.33-.24-.55-.24h-16.69c-.21,0-.39.08-.53.24-.15.17-.22.39-.19.62.01.09.02.19.02.29,0,.74-.17,1.43-.34,2.09l-6.36,23.48c-1.7,6.25-2.73,9.89-4.19,12.08-.16.24-.17.53-.03.78.14.25.4.4.69.39,1.04-.03,2.72-.06,4.86-.06s3.89.03,5.01.06c.28,0,.54-.14.68-.38.14-.24.14-.52,0-.76-.39-.64-.59-1.43-.59-2.32,0-1.45.48-3.43,1.1-5.93.1-.41.21-.84.31-1.28l.3-1.25c.09-.37.42-.63.8-.63h9.85c.38,0,.71.26.8.63l.41,1.72c.69,2.88,1.24,5.15,1.24,6.75,0,.9-.2,1.68-.6,2.33-.14.23-.15.52-.01.76.14.24.39.39.66.39h.02c1.5-.03,3.82-.07,6.38-.07,2.87,0,5.18.04,6.62.07.29,0,.54-.14.68-.39.14-.25.13-.54-.03-.78ZM195.86,165.66c-.16.2-.39.31-.64.31h-6.05c-.25,0-.49-.11-.64-.31-.16-.2-.21-.45-.16-.7l3-12.85c.09-.39.4-.64.8-.64h0c.4,0,.71.25.8.64l.02.08,3.03,12.77c.06.25,0,.5-.15.7Z"/>
        <path class="cls-1" d="M337.11,181.87c3.56,2.36,8.35,3.51,14.62,3.51,7.37,0,12.02-1.62,12.36-1.74v-.32c0-1.02-.04-2.09-.07-3.22-.14-4.25-.3-9.06,1.48-12.79.08-.26.06-.46-.05-.61-.13-.17-.4-.26-.79-.25-4.67.09-8.85.08-12.76-.03-.12,0-.23.05-.29.16-.06.11-.06.24,0,.35,1.74,3.05,1.68,6.92,1.64,10.34,0,.23,0,.47,0,.7,0,.58-.46,1.04-1.04,1.05-.06,0-.12,0-.18,0-7.05,0-10.05-4.03-10.05-13.49,0-4.86.93-8.37,2.84-10.73,1.93-2.38,4.83-3.54,8.85-3.54,2.14,0,3.79.27,5.19.84,1.37.57,2.56,1.46,3.73,2.8.19.22.48.29.75.19.26-.1.42-.34.41-.63-.03-1.03-.04-2.09-.04-3.18,0-3.62.1-4.93.11-5.1-.29-.13-3.87-1.62-11.62-1.62-7.22,0-12.73,1.69-16.38,5.02-3.87,3.53-5.83,9.07-5.83,16.45s2.4,12.68,7.14,15.82Z"/>
        <path class="cls-1" d="M170.08,166.45c-4.67.09-8.85.08-12.76-.03-.12,0-.23.05-.29.16-.06.11-.06.24,0,.35,1.74,3.05,1.68,6.92,1.64,10.34,0,.23,0,.47,0,.7,0,.58-.46,1.04-1.04,1.05-.06,0-.12,0-.18,0-7.05,0-10.05-4.03-10.05-13.49,0-4.86.93-8.37,2.84-10.73,1.93-2.38,4.83-3.54,8.85-3.54,2.14,0,3.79.27,5.19.84,1.37.57,2.56,1.46,3.73,2.8.19.22.48.29.75.19.26-.1.42-.34.41-.63-.03-1.03-.04-2.09-.04-3.18,0-3.62.1-4.93.11-5.1-.29-.13-3.87-1.62-11.62-1.62-7.22,0-12.73,1.69-16.38,5.02-3.87,3.53-5.83,9.07-5.83,16.45s2.4,12.68,7.14,15.82c3.56,2.36,8.35,3.51,14.62,3.51,7.37,0,12.02-1.62,12.36-1.74v-.32c0-1.02-.04-2.09-.07-3.22-.14-4.25-.3-9.06,1.48-12.79.08-.26.06-.46-.05-.61-.13-.17-.41-.26-.79-.25Z"/>
        <path class="cls-1" d="M246.97,144.93c-.41-.01-.79.22-.96.6l-5.73,12.53-.02.05c-.18.4-.56.64-.99.64h0c-.43,0-.81-.25-.99-.64l-.02-.05-5.73-12.53c-.17-.38-.55-.61-.97-.6-.92.03-3.01.08-6.68.08-.51,0-1.02,0-1.52,0-1.7,0-3.37-.02-5.05-.06-.31,0-.59.14-.76.4-.16.26-.18.58-.04.86.05.11.11.21.16.32.19.39.34.8.44,1.19.17.63.24,1.27.3,1.81.1.95.14,1.9.18,3.03.05,1.54.08,3.06.09,4.87.02,2.29.03,4.56.03,7.27,0,2.22,0,3.94-.01,5.55-.01,1.76-.03,3.66-.07,5.58-.03,1.15-.07,2.38-.15,3.61-.05.7-.11,1.45-.25,2.2-.09.51-.21.95-.37,1.35-.09.23-.2.48-.34.75-.14.28-.12.6.04.86.17.26.45.41.76.4,1.44-.04,2.9-.06,4.48-.06,1.42,0,2.83.02,4.21.06.31,0,.59-.14.76-.4.16-.26.18-.58.04-.86-.05-.11-.11-.22-.16-.32-.19-.4-.34-.8-.44-1.19-.17-.63-.24-1.27-.3-1.81-.1-.95-.14-1.9-.18-3.03-.05-1.54-.08-3.06-.09-4.87-.02-2.29-.03-4.56-.03-7.27v-3.44c0-.61.44-.98.87-1.06.43-.09.97.08,1.21.64.32.77.66,1.55,1.02,2.34l7.26,15.87c.17.37.53.6.93.6s.76-.23.93-.6l7.26-15.87c.35-.76.69-1.55,1.01-2.33.2-.47.61-.67.99-.67.08,0,.15,0,.22.02.43.09.87.45.87,1.06v2.89c0,2.56,0,4.53-.03,6.39-.02,2.12-.05,4.37-.16,6.63-.06,1.23-.13,2.43-.31,3.63-.13.82-.37,1.62-.76,2.46-.12.26-.1.57.07.81.17.25.45.4.75.39,2.03-.05,4.1-.07,6.15-.07s3.94,0,5.88.06c.31,0,.6-.14.76-.4.17-.26.18-.59.04-.87-.29-.57-.49-1.06-.61-1.56-.22-.87-.3-1.76-.36-2.6-.07-.95-.11-1.89-.13-2.8-.09-3.94-.09-7.96-.09-11.5,0-4,0-7.92.1-11.8.03-1.28.09-2.47.19-3.62.05-.61.14-1.4.33-2.17.1-.4.25-.8.48-1.27.15-.32.13-.69-.06-.98-.19-.3-.53-.48-.88-.47-2.1.04-4.28.07-6.49.07-3.84,0-6.08-.05-7.08-.09Z"/>
        <path class="cls-1" d="M280.6,165.25c0-2.02,0-3.66.01-5.15,0-.48,0-.95,0-1.43,0-2.81.02-5.72.26-8.56.12-1.49.44-2.67,1.07-4.08.11-.24.09-.51-.06-.74-.15-.23-.41-.36-.68-.35-1.89.05-3.91.07-6.37.07-2.3,0-4.35-.02-6.27-.07,0,0-.01,0-.02,0-.27,0-.52.13-.66.36-.15.23-.16.52-.03.77.22.43.38.79.5,1.13.48,1.35.54,2.83.6,4.26,0,.13.01.26.02.38.16,3.6.15,7.27.15,10.82,0,.68,0,1.35,0,2.03,0,1.96,0,4.29-.02,6.64,0,.66,0,1.34,0,1.99.02,3.73.03,7.25-1.36,10.62-.1.24-.07.52.08.73.15.22.39.34.66.33,2.07-.05,4.23-.08,6.42-.08,1.88,0,3.93.02,6.27.08.28,0,.53-.13.68-.36.15-.24.16-.52.03-.77-.23-.44-.39-.8-.51-1.14-.48-1.35-.54-2.83-.6-4.27,0-.13-.01-.26-.02-.39-.16-3.6-.15-7.27-.15-10.81,0-.67,0-1.34,0-2.02Z"/>
        <path class="cls-1" d="M325.17,144.93c-1.73.05-3.52.08-5.3.08s-3.39-.02-4.92-.08c-.2,0-.37.09-.48.25-.1.16-.11.37-.02.54.15.29.27.51.37.72.32.65.54,1.35.65,2.07.27,1.68.31,3.42.35,5.1v.32c.09,3.36.09,6.77.09,10.07v9.28c0,.11-.08.17-.16.18-.08.01-.17-.02-.2-.13-.25-.83-.69-2.11-1.33-3.47l-11.21-24.64c-.09-.21-.3-.34-.53-.33-.85.03-3.23.1-6.99.1-.38,0-4.6-.01-6.78-.05-.26,0-.49.12-.63.33-.15.22-.16.5-.05.75.66,1.42.99,2.87,1.1,4.86.22,3.73.21,7.53.2,11.21,0,.85,0,1.72,0,2.58,0,.69,0,1.38,0,2.07,0,4,.02,8.14-.25,12.19-.13,1.95-.43,3.36-1.06,4.85-.11.27-.08.57.08.81.17.25.45.39.75.38,1.38-.04,2.84-.06,4.6-.06,1.63,0,3.01,0,4.39.05.31,0,.59-.14.76-.39.17-.25.19-.56.06-.84-.54-1.18-.84-2.22-.95-3.36-.4-3.86-.36-7.85-.32-11.7.01-1.13.02-2.3.02-3.44v-8.69c0-.11.08-.17.16-.19,0,0,.02,0,.03,0,.07,0,.14.04.17.13.28.86.74,2.16,1.33,3.45l11.42,25.09c.29,0,3.69-.11,7.81-.11,3.71,0,5.41.1,5.66.11v-19.79c0-3.74.01-7.75.12-11.71.03-1,.09-2.09.18-3.34v-.08c.12-1.48.19-2.37.85-3.75h0l.02-.03c.09-.18.24-.49.39-.79.07-.14.06-.29-.02-.42-.08-.13-.22-.2-.37-.2Z"/>
      </g>
      <g>
        <path class="cls-1" d="M419.4,93.6l13.97,5.17c.07.03.12.08.15.15l5.17,13.97c.03.09.12.13.18.13s.15-.03.18-.13l5.17-13.97c.03-.07.08-.12.15-.15l13.97-5.17c.09-.03.13-.12.13-.18s-.03-.15-.13-.18l-13.97-5.17c-.07-.03-.12-.08-.15-.15l-5.17-13.97c-.03-.09-.12-.13-.18-.13s-.15.03-.18.13l-5.17,13.97c-.03.07-.08.12-.15.15l-13.97,5.17c-.09.03-.13.12-.13.18s.03.15.13.18Z"/>
        <path class="cls-1" d="M89.96,146.01l-5.17-13.97c-.03-.09-.12-.13-.18-.13s-.15.03-.18.13l-5.17,13.97c-.03.07-.08.12-.15.15l-13.97,5.17c-.09.03-.13.12-.13.18s.03.15.13.18l13.97,5.17c.07.03.12.08.15.15l5.17,13.97c.03.09.12.13.18.13s.15-.03.18-.13l5.17-13.97c.03-.07.08-.12.15-.15l13.97-5.17c.09-.03.13-.12.13-.18s-.03-.15-.13-.18l-13.97-5.17c-.07-.03-.12-.08-.15-.15Z"/>
        <path class="cls-1" d="M493.35,10.29l-7.41-2.74s-.07-.05-.09-.09l-2.74-7.41s-.05-.06-.08-.06-.07.02-.08.06l-2.74,7.41s-.05.07-.09.09l-7.41,2.74s-.06.05-.06.08.02.07.06.08l7.41,2.74s.07.05.09.09l2.74,7.41s.05.06.08.06.07-.02.08-.06l2.74-7.41s.05-.07.09-.09l7.41-2.74s.06-.05.06-.08-.02-.07-.06-.08Z"/>
        <path class="cls-1" d="M26.31,46.42l-5.86-2.17s-.06-.04-.07-.07l-2.17-5.86s-.04-.05-.07-.05-.05.01-.07.05l-2.17,5.86s-.04.06-.07.07l-5.86,2.17s-.05.04-.05.07.01.05.05.07l5.86,2.17s.06.04.07.07l2.17,5.86s.04.05.07.05.05-.01.07-.05l2.17-5.86s.04-.06.07-.07l5.86-2.17s.05-.04.05-.07-.01-.05-.05-.07Z"/>
      </g>
      <g>
        <path class="cls-1" d="M47.32,67.71c.17-.27.18-.6.03-.88-.26-.5-.44-.91-.58-1.29-.54-1.53-.61-3.22-.68-4.85,0-.15-.01-.29-.02-.44-.18-4.09-.17-8.26-.17-12.29,0-.76,0-1.53,0-2.29,0-2.3,0-4.16.01-5.86,0-.54,0-1.09,0-1.63,0-3.2.02-6.5.29-9.73.14-1.69.5-3.03,1.22-4.63.12-.27.1-.59-.07-.84-.17-.26-.46-.41-.78-.4-2.15.06-4.45.08-7.25.08-2.62,0-4.95-.03-7.12-.08,0,0-.02,0-.02,0-.31,0-.59.15-.75.41-.17.27-.18.6-.04.88.25.49.43.9.57,1.28.54,1.53.61,3.22.68,4.85,0,.15.01.29.02.43.18,4.09.17,8.26.17,12.3,0,.77,0,1.54,0,2.3,0,2.23,0,4.87-.02,7.55,0,.76,0,1.52,0,2.26.02,4.24.04,8.24-1.55,12.07-.11.28-.08.59.09.84.17.25.45.39.75.38,2.35-.06,4.81-.09,7.3-.09,2.14,0,4.47.03,7.13.09.32,0,.61-.15.77-.42Z"/>
        <path class="cls-1" d="M54.65,24.52c.22.45.38.9.5,1.35.19.72.28,1.44.34,2.05.11,1.09.16,2.16.21,3.44.06,1.75.09,3.48.1,5.53.02,2.6.03,5.18.03,8.26,0,2.53,0,4.47-.02,6.31-.01,2-.03,4.16-.08,6.35-.03,1.31-.08,2.71-.18,4.11-.06.8-.13,1.65-.29,2.5-.11.58-.24,1.08-.42,1.53-.1.26-.23.54-.38.85-.16.32-.14.68.05.98.19.3.51.47.87.46,1.64-.05,3.3-.07,5.09-.07,1.61,0,3.22.02,4.78.07.35,0,.68-.16.86-.46.19-.3.2-.66.04-.98-.06-.13-.13-.25-.18-.37-.22-.45-.38-.9-.5-1.35-.19-.72-.28-1.44-.34-2.05-.11-1.09-.16-2.16-.21-3.44-.06-1.75-.09-3.48-.1-5.53-.02-2.6-.03-5.18-.03-8.26v-3.92c0-.69.5-1.1.99-1.2.49-.1,1.1.09,1.37.72.37.87.76,1.76,1.16,2.66l8.26,18.04c.19.42.6.68,1.06.68s.87-.26,1.06-.68l8.26-18.04c.39-.86.78-1.76,1.15-2.65.22-.54.69-.76,1.13-.76.09,0,.17,0,.25.02.49.1.98.51.98,1.2v3.28c0,2.91,0,5.15-.03,7.27-.02,2.4-.06,4.97-.18,7.53-.07,1.39-.14,2.76-.35,4.12-.14.93-.43,1.84-.86,2.79-.14.3-.11.65.07.93.19.29.51.45.86.45,2.3-.05,4.66-.08,6.99-.08s4.48,0,6.69.07c.36,0,.68-.16.87-.46.19-.3.21-.67.04-1-.33-.65-.55-1.21-.69-1.77-.25-.99-.34-2.01-.41-2.96-.08-1.08-.13-2.15-.15-3.18-.1-4.48-.1-9.05-.1-13.07,0-4.55,0-9,.12-13.42.04-1.46.11-2.8.22-4.11.06-.69.15-1.59.38-2.47.12-.45.29-.91.54-1.44.17-.36.15-.78-.07-1.12-.22-.34-.6-.54-1.01-.53-2.39.05-4.87.08-7.38.08-4.37,0-6.92-.06-8.04-.1-.47-.02-.9.25-1.09.68l-6.52,14.25-.03.06c-.2.45-.63.73-1.12.73h0c-.49,0-.92-.28-1.12-.73l-.03-.06-6.51-14.25c-.2-.43-.63-.7-1.1-.68-1.04.04-3.42.1-7.59.1-.58,0-1.15,0-1.73,0-1.94,0-3.84-.02-5.74-.07-.35,0-.68.16-.86.46-.19.3-.2.66-.04.98.07.13.12.25.18.37Z"/>
        <path class="cls-1" d="M153.55,66.78c-1.59-2.4-2.65-6.21-4.52-13.75l-6.66-26.69c-.22-.88-.32-1.63-.32-2.38,0-.11,0-.21.02-.32.03-.27-.05-.53-.23-.72-.16-.18-.38-.28-.62-.28h-18.98c-.24,0-.45.1-.61.27-.17.19-.25.45-.22.71.01.11.02.22.02.33,0,.84-.2,1.62-.39,2.38l-7.23,26.69c-1.93,7.1-3.1,11.24-4.76,13.73-.18.27-.19.6-.04.89.16.29.45.46.79.45,1.18-.03,3.09-.06,5.52-.06s4.42.04,5.7.06c.32,0,.62-.16.78-.44.16-.27.15-.6,0-.86-.45-.73-.67-1.62-.67-2.64,0-1.65.55-3.9,1.25-6.74.12-.47.23-.96.35-1.46l.35-1.43c.1-.42.47-.71.9-.71h11.2c.43,0,.8.29.9.71l.47,1.95c.79,3.27,1.41,5.85,1.41,7.68,0,1.02-.23,1.91-.68,2.65-.16.27-.17.59-.01.86.16.28.45.45.78.44,1.7-.03,4.34-.08,7.25-.08,3.26,0,5.89.04,7.53.08h.02c.32,0,.6-.17.76-.45.16-.28.14-.62-.04-.89ZM133.73,46.17c-.18.22-.44.35-.73.35h-6.88c-.28,0-.55-.13-.73-.35-.18-.22-.24-.51-.18-.79l3.41-14.6c.1-.44.46-.72.9-.72h0c.45,0,.8.28.9.72l.02.09,3.45,14.51c.07.28,0,.57-.17.79Z"/>
        <path class="cls-1" d="M268.22,22.78c-.09-.15-.26-.23-.43-.23-1.97.06-4,.09-6.03.09s-3.85-.03-5.6-.09c-.22,0-.43.1-.55.29-.12.19-.12.42-.02.62.17.33.3.58.42.82.36.74.61,1.53.74,2.35.31,1.91.35,3.89.39,5.8v.36c.1,3.82.1,7.7.1,11.45v10.55c0,.12-.09.19-.18.2-.09.01-.19-.03-.23-.14-.29-.94-.79-2.4-1.51-3.95l-12.74-28.01c-.11-.24-.34-.39-.6-.38-.97.03-3.67.11-7.94.11-.46,0-5.19-.01-7.71-.06-.3,0-.56.13-.72.38-.17.25-.19.57-.06.86.74,1.61,1.12,3.26,1.26,5.52.25,4.24.24,8.56.23,12.75,0,.96,0,1.95,0,2.93,0,.78,0,1.56,0,2.35,0,4.55.02,9.25-.28,13.86-.14,2.22-.49,3.82-1.21,5.51-.13.31-.1.65.1.93.19.28.52.45.86.44,1.57-.05,3.23-.07,5.23-.07,1.86,0,3.42,0,4.99.06.35.01.68-.16.87-.45.19-.29.22-.64.07-.95-.62-1.34-.95-2.52-1.08-3.82-.45-4.39-.41-8.92-.36-13.3.01-1.28.03-2.61.03-3.91v-9.88c0-.12.09-.19.18-.21.01,0,.02,0,.03,0,.08,0,.16.04.19.14.32.98.84,2.45,1.51,3.92l12.99,28.53c.31,0,4.18-.13,8.88-.13,4.24,0,6.17.11,6.44.13v-22.5c0-4.26.02-8.81.13-13.31.03-1.14.1-2.38.21-3.79v-.09c.14-1.68.22-2.7.97-4.26h0l.02-.04c.1-.21.27-.56.44-.9.08-.16.07-.34-.02-.48Z"/>
        <path class="cls-1" d="M352.84,23.91c0-.35-.12-.68-.37-.93-.25-.25-.58-.39-.93-.39h-34.97c-.35,0-.69.14-.93.39-.24.25-.38.58-.37.93.02,1.07.03,2.31.03,3.71s-.02,2.62-.05,3.78c-.01.42.18.83.51,1.08.33.25.74.33,1.13.22.66-.19.93-.44,1.24-.73.17-.16.37-.34.65-.53l.05-.03c1.39-.88,2.49-1.57,5.46-1.57h2.31c.51,0,.92.41.92.92v14.28c0,4.05,0,9.09-.13,13.92-.04,1.38-.11,2.65-.23,3.89-.08.78-.19,1.69-.47,2.57-.2.62-.49,1.2-.74,1.68-.12.22-.11.48.02.7.14.22.37.35.63.34,2.24-.06,4.68-.09,7.48-.09,2.99,0,5.28.03,7.41.09.26,0,.49-.12.63-.34.14-.22.14-.49.02-.72-.21-.39-.47-.91-.67-1.45-.32-.86-.45-1.78-.53-2.49-.12-1.11-.2-2.29-.24-3.59-.13-4.56-.13-9.2-.13-13.69v-15.11c0-.51.41-.92.92-.92h2.31c2.98,0,4.08.69,5.46,1.57l.05.03c.32.21.53.41.71.58.28.27.53.51,1.11.69.42.13.86.06,1.2-.2.34-.26.53-.65.51-1.07-.04-1.16-.05-2.45-.05-3.82s0-2.64.03-3.71Z"/>
        <path class="cls-1" d="M202.62,67.74c.17.25.45.39.75.38,2.35-.06,4.81-.09,7.3-.09,2.14,0,4.47.03,7.13.09.32,0,.61-.15.77-.42.17-.27.18-.6.03-.88-.26-.5-.44-.91-.58-1.29-.54-1.53-.61-3.22-.68-4.85,0-.15-.01-.29-.02-.44-.18-4.09-.17-8.26-.17-12.29,0-.76,0-1.53,0-2.29,0-2.3,0-4.16.01-5.86,0-.54,0-1.08,0-1.63,0-3.2.02-6.5.29-9.73.14-1.69.5-3.03,1.22-4.63.12-.27.1-.59-.07-.84-.17-.26-.46-.41-.78-.4-2.15.06-4.45.08-7.25.08-2.62,0-4.95-.03-7.12-.08,0,0-.02,0-.02,0-.31,0-.59.15-.75.41-.17.27-.18.6-.04.88.25.49.43.9.57,1.28.54,1.53.61,3.22.68,4.85,0,.15.01.29.02.43.18,4.09.17,8.26.17,12.3,0,.77,0,1.54,0,2.3,0,2.23,0,4.87-.02,7.55,0,.76,0,1.52,0,2.26.02,4.24.04,8.24-1.55,12.07-.11.28-.08.59.09.84Z"/>
        <path class="cls-1" d="M316.49,66.74c-1.59-2.4-2.65-6.21-4.52-13.75l-6.66-26.69c-.22-.88-.32-1.63-.32-2.38,0-.11,0-.21.02-.32.03-.27-.05-.53-.22-.72-.16-.18-.38-.28-.62-.28h-18.98c-.24,0-.45.1-.61.27-.17.19-.25.45-.22.71.01.11.02.22.02.33,0,.84-.2,1.62-.39,2.38l-7.23,26.69c-1.93,7.1-3.1,11.24-4.76,13.73-.18.27-.19.6-.04.89.16.29.45.46.79.45,1.18-.03,3.09-.06,5.52-.06s4.42.04,5.7.06c.32,0,.62-.16.78-.44.16-.27.15-.6,0-.86-.45-.73-.67-1.62-.67-2.64,0-1.65.55-3.9,1.25-6.74.12-.47.23-.96.35-1.46l.35-1.43c.1-.42.47-.71.9-.71h11.19c.43,0,.8.29.9.71l.47,1.95c.79,3.27,1.41,5.85,1.41,7.68,0,1.02-.23,1.91-.68,2.65-.16.27-.17.59-.01.86.16.28.45.45.78.44,1.7-.03,4.34-.08,7.25-.08,3.26,0,5.89.04,7.52.08.33,0,.62-.16.78-.45.16-.28.14-.62-.04-.89ZM296.68,46.13c-.18.22-.44.35-.73.35h-6.88c-.29,0-.55-.13-.73-.35-.18-.22-.24-.51-.18-.79l3.41-14.6c.1-.44.46-.72.9-.72h0c.45,0,.8.28.9.72l.02.09,3.45,14.51c.07.28,0,.57-.17.79Z"/>
        <path class="cls-1" d="M371.64,45.66c0-2.3,0-4.16.01-5.86,0-.54,0-1.08,0-1.63,0-3.2.02-6.5.29-9.73.14-1.69.5-3.03,1.22-4.63.12-.27.1-.59-.07-.84-.17-.26-.46-.41-.78-.4-2.15.06-4.45.08-7.25.08-2.62,0-4.95-.03-7.12-.08,0,0-.02,0-.02,0-.31,0-.59.15-.75.41-.17.27-.18.6-.04.88.25.49.43.9.57,1.28.54,1.53.61,3.22.68,4.85,0,.15.01.29.02.43.18,4.09.17,8.26.17,12.3,0,.77,0,1.54,0,2.3,0,2.23,0,4.87-.02,7.55,0,.76,0,1.52,0,2.26.02,4.24.04,8.24-1.55,12.07-.11.28-.08.59.09.84.17.25.45.39.75.38,2.35-.06,4.81-.09,7.3-.09,2.14,0,4.47.03,7.13.09.32,0,.61-.15.77-.42.17-.27.18-.6.03-.88-.26-.5-.44-.91-.58-1.29-.54-1.53-.61-3.22-.68-4.85,0-.15-.01-.29-.02-.44-.18-4.09-.17-8.26-.17-12.29,0-.76,0-1.53,0-2.29Z"/>
        <path class="cls-1" d="M470.23,22.55c-1.97.06-3.99.09-6.03.09s-3.85-.03-5.6-.09c-.22,0-.43.1-.55.29-.12.19-.12.42-.02.62.17.32.3.58.42.82.36.74.61,1.53.74,2.35.31,1.91.35,3.89.39,5.8v.36c.1,3.82.1,7.7.1,11.45v10.55c0,.12-.09.19-.18.2-.09.01-.19-.03-.23-.14-.29-.94-.79-2.4-1.51-3.95l-12.74-28.01c-.11-.24-.34-.39-.6-.38-.96.03-3.67.11-7.94.11-.46,0-5.19-.01-7.71-.06-.29,0-.56.13-.72.38-.17.25-.19.57-.06.86.74,1.61,1.12,3.26,1.26,5.52.25,4.24.24,8.56.23,12.75,0,.96,0,1.95,0,2.93,0,.78,0,1.56,0,2.35,0,4.55.02,9.25-.28,13.86-.14,2.22-.49,3.82-1.21,5.51-.13.31-.1.65.1.93.19.28.52.45.86.44,1.57-.05,3.23-.07,5.23-.07,1.86,0,3.42,0,4.99.06.35.01.68-.16.87-.45.19-.29.22-.64.07-.95-.62-1.34-.95-2.52-1.08-3.82-.45-4.39-.41-8.92-.36-13.3.01-1.28.03-2.61.03-3.91v-9.88c0-.12.09-.19.18-.21.01,0,.02,0,.03,0,.08,0,.16.04.19.14.32.98.84,2.45,1.51,3.92l12.99,28.53c.31,0,4.18-.13,8.88-.13,4.24,0,6.17.11,6.44.13v-22.5c0-4.26.02-8.81.13-13.31.03-1.14.1-2.38.21-3.79v-.09c.14-1.68.22-2.7.97-4.26v-.03c.11-.2.28-.56.46-.91.08-.16.07-.34-.02-.48-.09-.15-.25-.23-.43-.23Z"/>
        <path class="cls-1" d="M194.73,66.21c0-1.16-.04-2.38-.08-3.67-.16-4.83-.35-10.3,1.68-14.53.09-.3.07-.53-.05-.7-.15-.2-.46-.3-.9-.29-5.5.1-10.24.09-14.51-.04-.14,0-.26.06-.33.18-.07.12-.07.27,0,.4,1.97,3.46,1.91,7.86,1.86,11.75,0,.27,0,.53,0,.79,0,.66-.53,1.18-1.19,1.19h-.2c-8.01,0-11.43-4.58-11.43-15.33,0-5.53,1.05-9.52,3.22-12.2,1.09-1.34,2.48-2.36,4.14-3.03,1.66-.67,3.65-1,5.91-1,2.44,0,4.32.3,5.9.96,1.56.64,2.91,1.66,4.24,3.18.02.02.08.08.16.11.39.15.93-.35,1.14-.54.13-.12,3.13-2.93,2.08-6.53-.41-1.41-1.29-2.39-1.96-2.96h-.01c-3.3-2.71-11.81-9.74-12.16-10.03-1.36.22-3.02,1.89-3.49,3.13-.47,1.28-.31,2.81.43,4.12.16.28.35.57.62.89l.04.05h-.06c-16.05.44-23.86,8.42-23.86,24.41,0,8.37,2.73,14.42,8.12,17.99,4.05,2.69,9.49,3.99,16.62,3.99,8.4,0,13.69-1.84,14.05-1.97v-.36Z"/>
        <g>
          <path class="cls-1" d="M392.94,34.93c.15.14.38.14.53,0l10.65-10.65c.19-.19.23-.46.09-.69-.11-.18-.29-.29-.49-.29-.05,0-.1,0-.16.02l-16.61,4.45c-.2.05-.35.21-.41.41-.05.2,0,.41.15.56l6.24,6.2Z"/>
          <path class="cls-1" d="M396.89,58.79l-13.25-4.91c-.07-.03-.15-.04-.21-.04-.22,0-.38.13-.47.27-.12.18-.16.47.08.72l11.34,11.34c.15.15.35.2.55.15.2-.05.35-.21.41-.41l1.79-6.66c.05-.19-.05-.38-.23-.45Z"/>
          <path class="cls-1" d="M413.1,61.65l-14.14-2.32s-.04,0-.06,0c-.17,0-.31.11-.36.28l-1.79,6.67c-.05.2,0,.41.15.55.15.15.35.2.55.15l15.7-4.21c.33-.09.44-.37.42-.58-.01-.21-.14-.48-.48-.54Z"/>
          <path class="cls-1" d="M423.21,39.83l-8.43,2.26c-.1.03-.18.09-.23.17-.05.09-.06.19-.04.28l3.91,14.32c.07.26.29.42.55.42h0c.27,0,.48-.17.55-.43l4.38-16.34c.05-.2,0-.41-.15-.55-.15-.15-.35-.2-.55-.15Z"/>
          <path class="cls-1" d="M413.93,40.4c.03.1.09.18.17.23.09.05.19.06.28.04l8.44-2.26c.2-.05.35-.21.41-.41.05-.2,0-.41-.15-.55l-12.07-12.07c-.11-.11-.26-.17-.4-.17-.1,0-.2.03-.29.08-.23.13-.34.39-.27.65l3.88,14.47Z"/>
          <path class="cls-1" d="M380.52,47.24c.23.13.5.1.69-.09l10.69-10.66c.07-.07.11-.16.11-.26,0-.1-.04-.19-.11-.26l-6.25-6.21c-.11-.11-.25-.17-.4-.17-.05,0-.1,0-.15.02-.2.05-.35.21-.41.41l-4.44,16.58c-.07.26.04.51.27.65Z"/>
          <path class="cls-1" d="M395.02,35.72c.03.13.13.23.26.26l16.56,4.44c.13.03.26,0,.36-.1.1-.1.13-.23.1-.36l-4.35-16.22c-.05-.2-.21-.35-.41-.41-.05-.01-.1-.02-.15-.02-.15,0-.29.06-.4.17l-11.87,11.87c-.1.1-.13.23-.1.36Z"/>
          <path class="cls-1" d="M399.94,57.81c.05.13.15.22.29.25l16.91,2.77c.19.03.39-.04.52-.18.13-.15.18-.35.13-.54l-4.47-16.35c-.04-.13-.14-.23-.27-.26-.13-.03-.27,0-.36.11l-5.72,6.25-6.95,7.59c-.09.1-.12.24-.08.37Z"/>
          <path class="cls-1" d="M411.55,41.86l-16.74-4.49s-.07-.01-.1-.01c-.09,0-.19.04-.26.1-.09.09-.13.22-.11.35l4.01,18.39c.03.14.13.24.27.28s.28,0,.37-.11l12.73-13.9c.09-.1.12-.23.08-.36-.04-.13-.13-.22-.26-.26Z"/>
          <path class="cls-1" d="M396.82,56.99c.1-.09.15-.23.12-.36l-3.99-18.3c-.03-.14-.13-.24-.26-.28-.13-.04-.27,0-.37.09l-12.07,12.03c-.14.14-.2.34-.16.53.04.19.18.35.36.42l15.99,5.93c.13.05.27.02.37-.07Z"/>
        </g>
      </g>
      <g>
        <path class="cls-1" d="M451.67,118.96c0,1.75-1.42,3.17-3.17,3.17s-3.17-1.42-3.17-3.17,1.42-3.17,3.17-3.17,3.17,1.42,3.17,3.17Z"/>
        <path class="cls-1" d="M436.49,124.06c0,2.05,1.67,3.72,3.72,3.72s3.72-1.67,3.72-3.72-1.67-3.72-3.72-3.72-3.72,1.67-3.72,3.72Z"/>
        <path class="cls-1" d="M435.91,120.56c0,1.06-.86,1.92-1.92,1.92s-1.92-.86-1.92-1.92.86-1.92,1.92-1.92,1.92.86,1.92,1.92Z"/>
        <path class="cls-1" d="M464.62,101.44c1.04,0,1.89-.85,1.89-1.89s-.85-1.89-1.89-1.89-1.89.85-1.89,1.89.85,1.89,1.89,1.89Z"/>
        <path class="cls-1" d="M96.41,98.42c0,1.06-.86,1.92-1.92,1.92s-1.92-.86-1.92-1.92.86-1.92,1.92-1.92,1.92.86,1.92,1.92Z"/>
        <path class="cls-1" d="M55.19,138.37c-1.04,0-1.89.85-1.89,1.89s.85,1.89,1.89,1.89,1.89-.85,1.89-1.89-.85-1.89-1.89-1.89Z"/>
      </g>
      <g>
        <path class="cls-1" d="M87.48,108.77c-2.24-2.86-7.7-8.44-13.92-14.23-6.68-6.22-12.51-11.06-15.59-12.95-8.03-4.92-19.07-11.05-22.33-7.48-.89.98-.83,6.36,4.61,13.27,5.42,6.88,11.34,11.34,11.75,11.65.33-.39,4.97-5.86,6.02-7.1l.11-.13-.15.42c-.69,1.85-2.52,6.76-2.96,8.34,2.9,1.66,5.99,2.9,9.17,3.68,3.94.96,4.92,1.05,7.07,1.23.63.05,1.34.12,2.26.21,3.09.32,6.3.85,11.49,3.72.59.32,1.24,1.07,1.87,1.79.65.75,1.27,1.46,1.65,1.47.08,0,.14-.02.19-.07l.02-.02.02.02s.45.36.47.87c.01.3-.12.59-.4.87.35.07,2.28.52,3.55,1.9-.68-1.15-3.28-5.55-4.9-7.45Z"/>
        <path class="cls-1" d="M87.04,119.71c-11.36,7.21-21.92,10.05-34.77,4.61-4.34-1.85-8.39-4.4-12.13-7.27-1.45-1.12-2.91-2.32-4.29-3.53-1.58-1.42-3.28-2.9-5.02-4.12-5.3-3.79-11.59-6.24-18.1-6.77-4.29-.33-8.67.01-12.75,1.42,2.06-.57,4.19-.82,6.31-.92,3.18-.14,6.36.14,9.46.84,6.17,1.38,11.87,4.49,16.6,8.66.66.57,1.7,1.56,2.35,2.16,2.38,2.19,4.9,4.27,7.54,6.14,8.04,5.71,17.79,9.59,27.78,7.93,7.63-1.19,14.23-5.56,20.02-10.43.81-.66,1.62-1.33,2.46-1.96,0,0,0,0,0,0-1.61.82-3.96,2.31-5.47,3.25Z"/>
      </g>
      <path class="cls-1" d="M418.17,162.21c0,1.34-1.09,2.43-2.43,2.43s-2.44-1.09-2.44-2.43,1.09-2.44,2.44-2.44,2.43,1.09,2.43,2.44Z"/>
    </g>
  </g>
</svg>