<?xml version="1.0" encoding="UTF-8"?>
<svg id="Layer_2" data-name="Layer 2" xmlns="http://www.w3.org/2000/svg" viewBox="0 0 439.59 171.48">
  <defs>
    <style>
      .cls-1 {
        fill: #fff;
      }
    </style>
  </defs>
  <g id="Layer_1-2" data-name="Layer 1">
    <g>
      <path class="cls-1" d="M15.62,51.59c-.59-1.67-.62-3.53-.69-5.28-.21-4.85-.16-9.72-.16-14.58,0-1.95,0-3.91.01-5.86.02-3.78-.02-7.59.3-11.36.15-1.81.54-3.13,1.22-4.62.28-.62-.2-1.3-.87-1.29-2.41.06-4.83.08-7.25.08s-4.75-.02-7.12-.08c-.7-.02-1.16.71-.84,1.34.21.42.41.84.57,1.28.59,1.66.62,3.53.7,5.27.21,4.86.16,9.74.16,14.6,0,2.52,0,5.03-.02,7.55-.04,4.93.32,9.81-1.54,14.32-.25.61.2,1.28.87,1.26,2.43-.06,4.86-.09,7.29-.09s4.75.03,7.13.09c.7.02,1.16-.72.83-1.34-.22-.42-.42-.85-.57-1.29Z"/>
      <path class="cls-1" d="M73.4,52.84c-.29-.58-.54-1.15-.69-1.76-.24-.96-.34-1.97-.41-2.96-.08-1.06-.13-2.12-.15-3.18-.1-4.36-.11-8.71-.11-13.07s0-8.94.12-13.41c.03-1.37.1-2.74.22-4.11.07-.83.17-1.66.38-2.46.13-.5.32-.98.54-1.44.38-.8-.22-1.72-1.11-1.7-2.46.05-4.92.08-7.38.08-4.34,0-6.87-.06-8.04-.1-.48-.02-.92.26-1.12.7l-6.52,14.25-.03.06c-.42.95-1.77.95-2.19,0l-.03-.06-6.51-14.25c-.2-.44-.65-.71-1.13-.7-1.11.04-3.48.1-7.59.1-.58,0-1.15,0-1.73,0-1.91,0-3.83-.02-5.74-.07-.78-.02-1.29.79-.94,1.48.06.12.12.24.18.37.21.43.38.88.5,1.35.18.67.27,1.36.34,2.05.12,1.14.17,2.29.21,3.44.06,1.84.09,3.69.1,5.53.03,2.75.03,5.51.03,8.26,0,2.11,0,4.21-.02,6.31-.01,2.12-.03,4.23-.08,6.35-.03,1.37-.08,2.74-.18,4.1-.06.83-.13,1.67-.29,2.5-.09.52-.22,1.03-.42,1.52-.11.29-.24.57-.38.85-.35.69.17,1.5.94,1.48,1.69-.05,3.39-.07,5.09-.07,1.59,0,3.19.02,4.78.07.78.02,1.29-.78.94-1.48-.06-.12-.12-.24-.18-.37-.21-.43-.38-.88-.5-1.35-.18-.67-.27-1.36-.34-2.05-.12-1.14-.17-2.29-.21-3.44-.06-1.84-.09-3.69-.1-5.53-.03-2.75-.03-5.51-.03-8.26v-3.92c0-1.3,1.79-1.67,2.3-.47.35.82.73,1.71,1.16,2.66l8.26,18.04c.43.93,1.75.93,2.18,0l8.26-18.04c.42-.93.81-1.82,1.15-2.65.5-1.21,2.3-.85,2.3.46v3.28c0,2.42,0,4.84-.03,7.27-.03,2.51-.06,5.02-.18,7.53-.07,1.38-.14,2.76-.35,4.12-.15.99-.45,1.9-.86,2.79-.31.68.21,1.44.96,1.42,2.33-.05,4.66-.08,6.99-.08s4.46,0,6.69.07c.79.02,1.3-.8.94-1.5Z"/>
      <path class="cls-1" d="M122.39,52.83c-1.62-2.44-2.68-6.35-4.52-13.74l-6.66-26.69c-.19-.77-.32-1.54-.32-2.37,0-.11,0-.22.02-.31.06-.54-.33-1.03-.88-1.03h-18.98c-.54,0-.91.48-.85,1.01.01.1.02.21.02.33,0,.83-.19,1.6-.38,2.37l-7.23,26.69c-1.99,7.32-3.12,11.27-4.76,13.72-.4.6.05,1.4.77,1.38,1.29-.03,3.17-.06,5.52-.06s4.3.03,5.7.07c.7.02,1.16-.75.8-1.35-.39-.63-.67-1.48-.67-2.62,0-1.92.77-4.74,1.6-8.19l.35-1.43c.1-.4.46-.69.87-.69h11.2c.41,0,.78.28.87.69l.35,1.43c.83,3.46,1.54,6.27,1.54,8.19,0,1.15-.29,2-.68,2.63-.37.6.09,1.36.79,1.35,1.74-.04,4.36-.08,7.25-.08,3.25,0,5.87.04,7.52.08.72.02,1.17-.78.77-1.38ZM101.82,32.57h-6.88c-.58,0-1.01-.54-.88-1.1l3.39-14.51s.01-.06.02-.09c.22-.93,1.54-.93,1.75,0,0,.03.01.06.02.09l3.45,14.51c.13.56-.29,1.11-.88,1.11Z"/>
      <path class="cls-1" d="M170.4,122.74c-2.29-3.44-3.78-8.96-6.37-19.38l-9.39-37.65c-.27-1.08-.45-2.17-.45-3.34,0-.16,0-.3.02-.44.08-.77-.46-1.46-1.24-1.46h-26.77c-.76,0-1.29.68-1.2,1.43.02.14.03.3.03.47,0,1.17-.27,2.26-.54,3.34l-10.2,37.65c-2.8,10.33-4.4,15.89-6.71,19.36-.57.85.07,1.98,1.09,1.95,1.82-.05,4.47-.09,7.79-.09s6.07.05,8.04.09c.99.02,1.64-1.06,1.12-1.9-.55-.89-.95-2.08-.95-3.7,0-2.71,1.08-6.68,2.26-11.56l.49-2.01c.14-.57.65-.97,1.23-.97h15.79c.59,0,1.09.4,1.23.97l.49,2.01c1.17,4.88,2.17,8.85,2.17,11.56,0,1.62-.4,2.82-.95,3.71-.52.84.12,1.92,1.11,1.9,2.45-.05,6.15-.11,10.22-.11,4.58,0,8.28.06,10.61.11,1.02.02,1.65-1.1,1.08-1.95ZM141.38,94.15h-9.71c-.82,0-1.42-.76-1.24-1.56l4.78-20.47s.02-.08.03-.13c.31-1.31,2.17-1.31,2.47,0,0,.04.02.08.03.12l4.87,20.47c.19.8-.41,1.56-1.23,1.56Z"/>
      <path class="cls-1" d="M182.12,169.84c-1.43-2.15-2.36-5.59-3.97-12.08l-5.86-23.48c-.17-.68-.28-1.35-.28-2.08,0-.1,0-.19.01-.27.05-.48-.29-.91-.77-.91h-16.69c-.47,0-.8.42-.75.89.01.09.02.19.02.29,0,.73-.17,1.41-.34,2.08l-6.36,23.48c-1.75,6.44-2.74,9.91-4.19,12.07-.35.53.04,1.23.68,1.22,1.13-.03,2.79-.06,4.86-.06s3.79.03,5.01.06c.62.01,1.02-.66.7-1.19-.34-.56-.59-1.3-.59-2.31,0-1.69.68-4.17,1.41-7.21l.3-1.25c.09-.36.4-.6.77-.6h9.85c.36,0,.68.25.77.6l.3,1.25c.73,3.04,1.35,5.52,1.35,7.21,0,1.01-.25,1.76-.6,2.31-.32.53.08,1.2.69,1.19,1.53-.03,3.84-.07,6.38-.07,2.86,0,5.16.04,6.62.07.63.01,1.03-.69.68-1.22ZM164.03,152.02h-6.05c-.51,0-.89-.47-.77-.97l2.98-12.77s.01-.05.02-.08c.19-.82,1.35-.82,1.54,0,0,.03.01.05.02.08l3.03,12.77c.12.5-.26.97-.77.97Z"/>
      <path class="cls-1" d="M333.47,152.5c-4.21.09-8.51.09-12.76-.03-.29,0-.46.3-.32.55,1.85,3.24,1.66,7.34,1.62,11.02,0,.56-.45,1.01-1.01,1.02-.06,0-.12,0-.18,0-7.26,0-10.02-4.34-10.02-13.46,0-9.57,3.66-14.24,11.66-14.24,4.21,0,6.63,1.03,8.9,3.63.43.49,1.23.19,1.22-.46-.02-.85-.04-1.93-.04-3.17,0-3.94.11-5.12.11-5.12,0,0-3.49-1.63-11.65-1.63-14.08,0-22.24,6.25-22.24,21.51,0,16.44,11.82,19.37,21.79,19.37,7.71,0,12.39-1.75,12.39-1.75v-.34c0-4.91-.84-11.3,1.4-15.99.21-.68-.24-.92-.86-.9Z"/>
      <path class="cls-1" d="M138.89,152.49c-4.21.08-8.51.09-12.76-.03-.29,0-.46.3-.32.55,1.85,3.25,1.66,7.34,1.62,11.02,0,.56-.45,1.01-1.01,1.02-.06,0-.12,0-.18,0-7.26,0-10.02-4.34-10.02-13.46,0-9.57,3.66-14.24,11.66-14.24,4.21,0,6.63,1.03,8.9,3.63.43.49,1.23.19,1.21-.46-.02-.85-.04-1.93-.04-3.18,0-3.94.11-5.12.11-5.12,0,0-3.49-1.63-11.66-1.63-14.08,0-22.24,6.25-22.24,21.51,0,16.44,11.82,19.37,21.79,19.37,7.71,0,12.39-1.75,12.39-1.75v-.34c0-4.91-.84-11.3,1.4-15.99.21-.69-.24-.92-.86-.9Z"/>
      <path class="cls-1" d="M236.6,8.6c-2.01.06-4.02.09-6.02.09-1.87,0-3.73-.02-5.6-.09-.5-.02-.83.51-.59.95.14.27.28.54.42.82.36.74.61,1.53.74,2.34.33,2.03.36,4.11.4,6.16.09,4.07.09,8.15.09,12.22v9.79c0,.2-.29.25-.35.05-.3-.97-.79-2.41-1.51-3.95l-12.74-28.01c-.11-.25-.36-.4-.63-.39-1,.03-3.69.11-7.94.11-.45,0-5.21-.01-7.71-.06-.66-.01-1.08.67-.8,1.28.81,1.76,1.13,3.46,1.25,5.51.31,5.21.22,10.46.22,15.67s.07,10.82-.28,16.21c-.14,2.11-.46,3.74-1.2,5.5-.29.68.24,1.43.98,1.41,1.74-.05,3.49-.07,5.23-.07s3.33,0,4.99.06c.76.02,1.29-.75.97-1.44-.55-1.2-.93-2.37-1.08-3.81-.58-5.68-.34-11.51-.34-17.2v-9.88c0-.2.28-.25.34-.06.32.98.84,2.47,1.51,3.92l12.99,28.55s3.97-.13,8.9-.13c4.61,0,6.47.13,6.47.13v-22.53c0-4.44.02-8.87.13-13.31.03-1.27.11-2.53.21-3.79.14-1.76.2-2.76.97-4.35.09-.19.28-.57.46-.94.18-.35-.09-.76-.48-.75Z"/>
      <path class="cls-1" d="M321.66,13.68c0-1.66.01-2.88.03-3.71.01-.75-.59-1.35-1.33-1.35h-34.97c-.75,0-1.35.61-1.33,1.35.01.82.03,2.04.03,3.71s-.02,2.85-.05,3.78c-.03.89.82,1.58,1.68,1.33,1.05-.31,1.11-.74,1.89-1.27,1.41-.89,2.49-1.6,5.5-1.6h2.31c.49,0,.89.4.89.89v14.28c0,4.64,0,9.28-.13,13.92-.04,1.3-.11,2.59-.23,3.88-.08.87-.2,1.74-.47,2.56-.18.58-.45,1.14-.74,1.68-.27.5.12,1.1.69,1.08,2.49-.07,4.98-.09,7.48-.09s4.94.02,7.41.09c.57.02.95-.59.68-1.1-.25-.47-.49-.95-.67-1.44-.29-.8-.43-1.64-.52-2.48-.13-1.19-.2-2.39-.24-3.59-.13-4.62-.13-9.25-.13-13.87v-14.92c0-.49.4-.89.89-.89h2.31c3.01,0,4.09.71,5.5,1.6.82.54.87.97,1.82,1.28.88.28,1.78-.38,1.75-1.3-.03-.92-.05-2.19-.05-3.82Z"/>
      <path class="cls-1" d="M287.18,59.62c-20.05,0-30.78,12.64-30.78,33.86s10.2,32.42,30.97,32.42,30.78-12.64,30.78-33.86-10.2-32.42-30.97-32.42ZM287.3,112.76c-11,0-19.92-8.93-19.92-19.93,0-10.26,7.76-18.71,17.73-19.8-.78,1.92-1.22,4.03-1.22,6.24,0,9.2,7.47,16.66,16.67,16.66,2.35,0,4.57-.48,6.6-1.35-.88,10.19-9.44,18.18-19.86,18.18Z"/>
      <path class="cls-1" d="M382.6,122.4c-1.75-1.27-2.85-2.98-4.41-6.16l-5.24-10.65c-2.4-4.86-4.46-7.58-7.53-9.11-1.04-.52-.92-2.03.2-2.33,5.68-1.51,12.38-5.54,12.38-17.01,0-16.16-14.09-16.79-29.62-16.79-2.89,0-11.11.18-14.18.18-.98,0-1.96,0-2.94-.02-1.65-.02-3.3-.06-4.95-.11-.58-.02-.98.6-.7,1.11.21.39.41.78.61,1.17.14.27.27.54.39.82.12.29.24.58.33.88.11.35.2.7.28,1.05.09.44.17.88.23,1.32.08.56.14,1.12.19,1.69.06.72.11,1.44.15,2.16.05.91.08,1.83.11,2.74.04,1.14.06,2.28.08,3.42.02,1.4.04,2.81.05,4.21.01,1.7.02,3.4.03,5.1,0,2.02,0,4.04,0,6.06,0,.56,0,1.12,0,1.68,0,3.59-.01,7.18-.06,10.77-.03,2.48-.07,4.96-.16,7.44-.06,1.62-.13,3.23-.28,4.84-.09,1-.21,2.01-.42,2.99-.25,1.24-.76,2.41-1.35,3.53-.34.64.12,1.4.85,1.38,3.4-.09,6.79-.13,10.19-.13.96,0,1.93,0,2.89,0,2.44.01,4.87.05,7.31.12.72.02,1.19-.74.85-1.38-.26-.48-.51-.96-.75-1.45-.32-.68-.57-1.39-.74-2.13-.28-1.27-.4-2.58-.49-3.88-.15-2.18-.21-4.37-.25-6.56-.03-1.59-.05-3.17-.06-4.76,0-.55-.16-5.87-.02-5.9.03,0,.56-.09,1.26-.09,2.98,0,3.79,1.99,7.31,8.67l4.24,8.04c4.42,8.4,8.04,10.11,16.07,10.11,3.82,0,6.25-.39,7.77-.81,1.02-.29,1.2-1.62.34-2.24ZM353.72,88.79c-1.44.45-2.98.63-4.79.63-.93,0-1.62-.01-2.13-.03-.68-.02-1.21-.58-1.21-1.25v-17.28c0-.66.51-1.21,1.17-1.25.48-.03,1.13-.05,1.99-.05,6.77,0,10.65,1.9,10.65,9.93,0,5.6-2.26,8.22-5.69,9.3Z"/>
      <path class="cls-1" d="M230.41,169.77c-.26-.51-.47-1.01-.61-1.55-.21-.85-.29-1.73-.36-2.6-.07-.93-.11-1.86-.13-2.8-.09-3.83-.09-7.67-.09-11.5s0-7.87.1-11.8c.03-1.21.09-2.41.19-3.61.06-.73.15-1.46.33-2.17.11-.44.28-.86.48-1.27.34-.7-.19-1.51-.97-1.49-2.16.05-4.33.07-6.49.07-3.81,0-6.05-.05-7.08-.09-.42-.01-.81.23-.99.61l-5.73,12.53-.02.05c-.37.83-1.55.83-1.92,0l-.02-.05-5.73-12.53c-.18-.39-.57-.63-.99-.61-.98.03-3.06.08-6.68.08-.51,0-1.01,0-1.52,0-1.68,0-3.36-.01-5.05-.06-.68-.02-1.13.69-.82,1.3.05.11.11.21.16.32.18.38.33.78.44,1.18.16.59.24,1.2.3,1.8.1,1.01.15,2.02.18,3.03.06,1.62.08,3.24.09,4.86.02,2.42.03,4.84.03,7.27,0,1.85,0,3.7-.01,5.55-.01,1.86-.03,3.72-.07,5.58-.03,1.2-.07,2.41-.15,3.61-.05.73-.12,1.47-.25,2.2-.08.46-.2.91-.37,1.34-.1.25-.21.5-.33.75-.3.61.15,1.32.83,1.3,1.49-.04,2.98-.06,4.47-.06,1.4,0,2.8.02,4.2.06.68.02,1.13-.69.82-1.3-.05-.11-.11-.21-.16-.32-.18-.38-.33-.78-.44-1.18-.15-.59-.24-1.2-.3-1.8-.1-1.01-.15-2.02-.18-3.03-.06-1.62-.08-3.24-.09-4.86-.02-2.42-.03-4.84-.03-7.27v-3.44c0-1.15,1.58-1.47,2.02-.41.3.72.64,1.5,1.02,2.34l7.26,15.87c.37.82,1.54.82,1.92,0l7.26-15.87c.37-.82.71-1.6,1.01-2.33.44-1.06,2.03-.75,2.03.4v2.89c0,2.13,0,4.26-.03,6.39-.02,2.21-.05,4.42-.16,6.62-.06,1.21-.13,2.43-.31,3.62-.14.87-.4,1.67-.75,2.45-.27.6.19,1.26.84,1.25,2.05-.05,4.1-.07,6.15-.07s3.92,0,5.88.06c.69.02,1.14-.7.83-1.32Z"/>
      <path class="cls-1" d="M251.1,112.84c-.14,2.09-.31,4.78-.49,8.18l-.09,1.92c-.05,1-.88,1.79-1.88,1.79h-33.33c-1.89,0-3.36.01-4.45.03-.82,0-1.48-.66-1.48-1.49,0-.2.04-.4.11-.58h0c.03-.08.06-.14.1-.2,1.44-2.83,1.83-5.5,1.83-30.36s-.34-26.6-2.12-29.99c-.05-.06-.09-.14-.11-.21-.06-.13-.09-.26-.09-.41,0-.6.49-1.09,1.09-1.09h.04c1.89.05,5.37.11,10.95.11,5.23,0,8.46-.05,10.29-.1.6,0,1.09.49,1.09,1.09,0,.15-.03.29-.09.43v.03c-.06.08-.1.15-.15.23-1.96,3.32-2.4,5.88-2.4,23.7v26.47c0,1.04.85,1.88,1.88,1.88h3.81c6.92,0,10.11-.99,12.33-2.91,1.29-1.1,3.27-.19,3.15,1.5Z"/>
      <path class="cls-1" d="M186.87,51.59c-.59-1.67-.62-3.53-.69-5.28-.21-4.85-.16-9.72-.16-14.58,0-1.95,0-3.91.01-5.86.02-3.78-.02-7.59.3-11.36.15-1.81.54-3.13,1.22-4.62.28-.62-.2-1.3-.87-1.29-2.41.06-4.83.08-7.25.08s-4.75-.02-7.12-.08c-.7-.02-1.16.71-.84,1.34.21.42.41.84.57,1.28.59,1.66.62,3.53.7,5.27.21,4.86.16,9.74.16,14.6,0,2.52,0,5.03-.02,7.55-.04,4.93.32,9.81-1.54,14.32-.25.61.2,1.28.87,1.26,2.43-.06,4.86-.09,7.29-.09s4.75.03,7.13.09c.7.02,1.16-.72.83-1.34-.22-.42-.42-.85-.57-1.29Z"/>
      <path class="cls-1" d="M198.76,121.04c-.83-2.35-.87-4.99-.98-7.45-.3-6.85-.23-13.72-.23-20.57,0-2.76,0-5.51.02-8.27.03-5.33-.03-10.7.42-16.02.21-2.55.76-4.42,1.72-6.52.39-.87-.28-1.84-1.23-1.81-3.41.09-6.81.12-10.22.12s-6.7-.03-10.05-.12c-.99-.03-1.63,1.01-1.18,1.89.3.59.58,1.18.8,1.8.84,2.35.88,4.98.99,7.44.3,6.86.23,13.73.23,20.6,0,3.55,0,7.1-.03,10.64-.06,6.96.46,13.84-2.18,20.21-.36.86.29,1.8,1.22,1.78,3.43-.08,6.86-.12,10.29-.12s6.7.05,10.06.12c.99.02,1.63-1.02,1.18-1.89-.31-.59-.59-1.19-.81-1.82Z"/>
      <path class="cls-1" d="M285.33,52.79c-1.62-2.44-2.68-6.36-4.52-13.74l-6.66-26.69c-.19-.77-.32-1.54-.32-2.37,0-.11,0-.22.02-.31.06-.54-.33-1.03-.88-1.03h-18.98c-.54,0-.91.48-.85,1.01.01.1.02.21.02.33,0,.83-.19,1.6-.38,2.37l-7.23,26.69c-1.99,7.32-3.12,11.27-4.76,13.72-.4.6.05,1.4.77,1.38,1.29-.03,3.17-.06,5.52-.06s4.3.03,5.7.07c.7.02,1.16-.75.8-1.35-.39-.63-.67-1.48-.67-2.62,0-1.92.77-4.74,1.6-8.19l.35-1.43c.1-.4.46-.69.87-.69h11.19c.42,0,.78.28.87.69l.35,1.43c.83,3.46,1.54,6.27,1.54,8.19,0,1.15-.29,2-.68,2.63-.37.6.09,1.36.79,1.35,1.74-.04,4.36-.08,7.25-.08,3.25,0,5.87.04,7.52.08.72.02,1.17-.78.77-1.38ZM264.76,32.53h-6.88c-.58,0-1.01-.54-.88-1.1l3.39-14.51s.01-.06.02-.09c.22-.93,1.54-.93,1.75,0,0,.03.01.06.02.09l3.45,14.51c.13.56-.29,1.11-.87,1.11Z"/>
      <path class="cls-1" d="M341.35,51.59c-.59-1.67-.62-3.53-.7-5.28-.21-4.85-.16-9.72-.16-14.58,0-1.95,0-3.91.01-5.86.02-3.78-.02-7.59.3-11.36.15-1.81.54-3.13,1.22-4.62.28-.62-.2-1.3-.87-1.29-2.41.06-4.83.08-7.25.08s-4.75-.02-7.12-.08c-.7-.02-1.16.72-.84,1.34.21.42.41.84.57,1.28.59,1.66.62,3.53.7,5.27.21,4.86.16,9.74.16,14.6,0,2.52,0,5.03-.03,7.55-.04,4.93.32,9.81-1.54,14.32-.25.61.2,1.28.87,1.26,2.43-.06,4.86-.09,7.29-.09s4.75.03,7.13.09c.7.01,1.16-.72.83-1.34-.22-.42-.42-.85-.57-1.29Z"/>
      <path class="cls-1" d="M439.05,8.59c-2.01.06-4.02.09-6.02.09-1.87,0-3.73-.02-5.6-.09-.5-.02-.83.51-.59.95.14.27.28.54.42.82.36.74.61,1.53.74,2.35.33,2.03.36,4.11.4,6.16.09,4.07.09,8.15.09,12.22v9.79c0,.2-.29.25-.35.05-.3-.97-.79-2.41-1.51-3.95l-12.74-28.01c-.11-.25-.36-.4-.63-.39-1,.03-3.69.11-7.94.11-.45,0-5.21-.01-7.71-.06-.66-.01-1.08.67-.8,1.28.81,1.76,1.13,3.46,1.25,5.51.31,5.21.22,10.46.22,15.67s.07,10.82-.28,16.21c-.14,2.11-.46,3.74-1.2,5.5-.29.68.24,1.43.98,1.41,1.74-.05,3.49-.07,5.23-.07s3.33,0,4.99.06c.76.02,1.29-.75.97-1.44-.55-1.2-.93-2.37-1.08-3.81-.58-5.68-.34-11.5-.34-17.2v-9.88c0-.2.28-.25.34-.06.32.98.84,2.47,1.51,3.92l12.99,28.55s3.97-.13,8.9-.13c4.61,0,6.47.13,6.47.13v-22.53c0-4.44.02-8.87.13-13.31.03-1.27.11-2.53.21-3.79.14-1.76.2-2.76.97-4.35.09-.19.28-.57.46-.94.18-.35-.09-.76-.48-.75Z"/>
      <path class="cls-1" d="M110.23,67.55c0-2.34.02-4.06.04-5.23.02-1.05-.83-1.91-1.88-1.91h-49.32c-1.05,0-1.9.85-1.88,1.91.02,1.16.04,2.88.04,5.23s-.03,4.02-.07,5.33c-.04,1.26,1.16,2.23,2.37,1.88,1.48-.43,1.56-1.04,2.67-1.78,1.98-1.25,3.52-2.26,7.76-2.26h3.26c.69,0,1.25.56,1.25,1.25v20.15c0,6.55,0,13.09-.18,19.64-.05,1.83-.15,3.66-.33,5.48-.12,1.22-.29,2.45-.66,3.62-.26.82-.64,1.6-1.04,2.37-.37.71.17,1.55.97,1.53,3.52-.09,7.03-.12,10.55-.12s6.97.02,10.46.12c.81.02,1.34-.83.96-1.55-.35-.66-.69-1.34-.94-2.04-.42-1.12-.61-2.31-.74-3.5-.19-1.68-.29-3.37-.33-5.07-.18-6.52-.18-13.05-.18-19.57v-21.05c0-.69.56-1.25,1.25-1.25h3.26c4.24,0,5.78,1,7.76,2.26,1.16.76,1.22,1.37,2.57,1.8,1.24.4,2.51-.53,2.47-1.84-.04-1.3-.08-3.09-.08-5.38Z"/>
      <path class="cls-1" d="M250.2,168.79c-.52-1.47-.54-3.11-.61-4.64-.19-4.27-.14-8.55-.14-12.83,0-1.72,0-3.44.01-5.15.02-3.32-.02-6.67.26-9.99.13-1.59.48-2.76,1.07-4.07.25-.54-.17-1.15-.77-1.13-2.12.06-4.25.07-6.37.07s-4.18-.02-6.27-.07c-.62-.02-1.02.63-.74,1.18.19.37.36.74.5,1.12.52,1.46.55,3.1.62,4.64.19,4.28.14,8.56.14,12.84,0,2.21,0,4.42-.02,6.64-.04,4.34.28,8.63-1.36,12.6-.22.54.18,1.12.76,1.11,2.14-.05,4.28-.08,6.42-.08s4.18.03,6.27.08c.61.01,1.02-.63.73-1.18-.19-.37-.37-.74-.51-1.13Z"/>
      <path class="cls-1" d="M293.98,130.97c-1.77.05-3.53.08-5.3.08-1.64,0-3.28-.02-4.92-.08-.44-.01-.73.45-.52.84.13.24.25.48.37.72.32.65.53,1.35.65,2.06.29,1.79.31,3.61.35,5.42.08,3.58.08,7.17.08,10.75v8.61c0,.18-.25.22-.3.05-.26-.85-.7-2.12-1.33-3.48l-11.21-24.64c-.1-.22-.31-.36-.55-.35-.88.03-3.24.1-6.99.1-.4,0-4.58-.01-6.78-.05-.58-.01-.95.59-.71,1.12.72,1.55.99,3.05,1.1,4.85.28,4.58.19,9.2.19,13.79s.06,9.52-.24,14.26c-.12,1.86-.41,3.29-1.06,4.84-.25.6.21,1.26.87,1.24,1.53-.04,3.07-.06,4.6-.06s2.93,0,4.39.05c.67.02,1.13-.66.86-1.27-.48-1.05-.82-2.08-.95-3.35-.51-5-.3-10.12-.3-15.13v-8.69c0-.18.25-.22.3-.05.28.87.74,2.17,1.33,3.45l11.43,25.11s3.49-.11,7.83-.11c4.05,0,5.69.11,5.69.11v-19.82c0-3.9.02-7.8.12-11.71.03-1.11.1-2.23.18-3.33.12-1.55.18-2.43.85-3.82.08-.17.24-.51.4-.83.16-.31-.08-.67-.42-.66Z"/>
      <path class="cls-1" d="M165.16,34.1c-2.55,5.33-1.59,12.6-1.59,18.19v.38s-5.32,1.98-14.08,1.98c-11.33,0-24.77-3.32-24.77-22.02,0-16.84,8.75-24.03,23.89-24.44-.23-.28-.44-.58-.62-.9-.71-1.24-.93-2.8-.44-4.14.51-1.33,2.2-2.95,3.53-3.16,0,0,8.78,7.25,12.17,10.03h0c.64.56,1.55,1.54,1.97,2.99,1,3.45-1.72,6.22-2.09,6.56-.21.19-.76.7-1.17.54-.1-.04-.16-.1-.17-.12-2.58-2.96-5.33-4.13-10.12-4.13-9.08,0-13.25,5.32-13.25,16.2s3.14,15.3,11.4,15.3h.2c.64,0,1.15-.52,1.16-1.16.04-4.18.25-8.84-1.85-12.52-.16-.28.03-.63.36-.62,4.83.14,9.72.12,14.51.04.7-.02,1.22.24.98,1.02Z"/>
      <g>
        <path class="cls-1" d="M355.76,13.81l16.61-4.45c.6-.16,1.02.57.58,1.01l-10.65,10.65c-.16.16-.41.16-.57,0l-6.24-6.2c-.33-.33-.18-.89.27-1.01Z"/>
        <path class="cls-1" d="M352.47,39.92l13.25,4.91c.19.07.3.28.25.48l-1.79,6.66c-.12.45-.68.6-1.01.27l-11.34-11.34c-.46-.46.03-1.22.64-.99Z"/>
        <path class="cls-1" d="M367.78,45.38l14.14,2.32c.64.11.69,1.01.06,1.18l-15.7,4.21c-.45.12-.86-.29-.74-.74l1.79-6.67c.05-.2.25-.33.45-.29Z"/>
        <path class="cls-1" d="M383.58,28.13l8.43-2.26c.45-.12.86.29.74.74l-4.38,16.34c-.16.6-1,.6-1.17,0l-3.91-14.32c-.06-.22.07-.44.28-.5Z"/>
        <path class="cls-1" d="M379.85,11.43l12.07,12.07c.33.33.18.89-.27,1.01l-8.44,2.26c-.21.06-.44-.07-.49-.28l-3.88-14.47c-.16-.6.57-1.02,1.01-.58Z"/>
        <path class="cls-1" d="M354.49,15.81l6.25,6.21c.16.16.16.41,0,.57l-10.69,10.66c-.44.44-1.17.01-1.01-.58l4.44-16.58c.12-.45.68-.6,1.01-.27Z"/>
        <path class="cls-1" d="M363.91,21.41l11.87-11.87c.33-.33.89-.18,1.01.27l4.35,16.22c.08.3-.19.57-.49.49l-16.56-4.44c-.3-.08-.4-.45-.18-.67Z"/>
        <path class="cls-1" d="M375.76,35.9l5.72-6.25c.21-.23.6-.14.69.17l4.47,16.35c.12.42-.25.83-.68.76l-16.91-2.77c-.32-.05-.45-.43-.23-.67l6.95-7.59Z"/>
        <path class="cls-1" d="M363.63,23.42l16.74,4.49c.29.08.4.44.19.66l-12.73,13.9c-.22.24-.62.13-.69-.19l-4.01-18.39c-.06-.29.21-.55.5-.47Z"/>
        <path class="cls-1" d="M349.04,36.23l12.07-12.03c.23-.22.61-.11.68.2l3.99,18.3c.07.31-.24.57-.53.46l-15.99-5.93c-.41-.15-.53-.68-.22-.99Z"/>
      </g>
    </g>
  </g>
</svg>